<svg xmlns="http://www.w3.org/2000/svg" viewBox="0 0 300 300">
  <circle cx="150" cy="150" r="150" fill="white" stroke="black" stroke-width="1" />
  
  <!-- Desio (convertito in path) -->
  <path d="M60 85 L60 65 L65 65 L65 85 Z" fill="#000000" />
  <path d="M70 85 C75 85 75 65 70 65 L70 85 Z" fill="#000000" />
  <path d="M80 85 L85 85 L85 65 L80 65 Z" fill="#000000" />
  <path d="M90 85 C95 85 95 65 90 65 L90 85 Z" fill="#000000" />
  <path d="M100 85 L105 85 L105 65 L100 65 Z" fill="#000000" />
  
  <!-- Libera (convertito in path) -->
  <path d="M60 135 L60 115 L65 115 L65 135 Z" fill="#000000" />
  <path d="M70 135 C75 135 75 115 70 115 L70 135 Z" fill="#000000" />
  <path d="M80 135 L85 135 L85 115 L80 115 Z" fill="#000000" />
  <path d="M90 135 C95 135 95 115 90 115 L90 135 Z" fill="#000000" />
  <path d="M100 135 L105 135 L105 115 L100 115 Z" fill="#000000" />
  <path d="M110 135 L115 135 L115 115 L110 115 Z" fill="#000000" />

  <!-- Asterisco fisso -->
  <path
    d="M215,150 L215,130 M215,150 L215,170 M215,150 L195,140 M215,150 L235,140 M215,150 L195,160 M215,150 L235,160"
    stroke="#FE1716"
    stroke-width="8"
    fill="none"
  />
  <!-- Sorriso -->
  <path
    d="M75,190 A80,80 0 0,0 225,190"
    stroke="#FE1716"
    stroke-width="20"
    fill="none"
  />
</svg>